<svg width="168" height="53" viewBox="0 0 168 53" fill="none" xmlns="http://www.w3.org/2000/svg">
<path d="M165.523 25.4799V30.4414C165.523 31.6006 165.944 32.1802 166.761 32.1802C167.579 32.1802 168 31.6006 168 30.4414V22.7673C168 22.234 167.907 21.8167 167.743 21.5385C167.556 21.2603 167.276 21.1212 166.878 21.1212C166.598 21.1212 166.364 21.1907 166.154 21.3298C165.967 21.4689 165.757 21.6776 165.57 21.9326L160.989 27.9374V22.8832C160.989 21.724 160.569 21.1212 159.751 21.1212C158.933 21.1212 158.512 21.7008 158.512 22.8832V30.7428C158.512 31.2528 158.606 31.6006 158.769 31.8556C158.933 32.0875 159.213 32.2034 159.611 32.2034C159.891 32.2034 160.125 32.157 160.358 32.0411C160.592 31.9252 160.826 31.7165 161.059 31.392L165.523 25.4799Z" fill="white"/>
<path d="M163.233 21.1444C162.485 21.1444 161.877 20.9589 161.41 20.6111C160.943 20.2633 160.709 19.846 160.709 19.4055C160.709 19.1505 160.779 18.9418 160.919 18.8027C161.059 18.6404 161.246 18.5709 161.503 18.5709C161.737 18.5709 161.924 18.6172 162.018 18.7332C162.111 18.8259 162.204 18.9418 162.275 19.0809C162.345 19.1969 162.462 19.3128 162.578 19.4287C162.719 19.5214 162.929 19.591 163.233 19.591C163.537 19.591 163.747 19.5446 163.887 19.4287C164.027 19.336 164.121 19.22 164.191 19.0809C164.261 18.965 164.354 18.8491 164.448 18.7332C164.541 18.6404 164.705 18.5709 164.962 18.5709C165.219 18.5709 165.429 18.6404 165.57 18.8027C165.71 18.965 165.78 19.1505 165.78 19.4055C165.78 19.8692 165.546 20.2865 165.079 20.6343C164.588 20.9589 163.981 21.1444 163.233 21.1444Z" fill="white"/>
<path d="M155.03 30.4414V22.86C155.03 21.7008 154.61 21.098 153.768 21.098C152.95 21.098 152.53 21.6776 152.53 22.86V30.4414C152.53 31.6006 152.95 32.1802 153.768 32.1802C154.61 32.1802 155.03 31.6006 155.03 30.4414Z" fill="white"/>
<path d="M150.193 25.7117C149.538 25.0626 148.604 24.738 147.412 24.738H146.103V22.8832C146.103 21.724 145.683 21.1212 144.865 21.1212C144.047 21.1212 143.626 21.7008 143.626 22.8832V30.3255C143.626 30.9283 143.743 31.3688 143.953 31.647C144.164 31.9252 144.631 32.0643 145.332 32.0643H147.202C148.44 32.0643 149.422 31.7397 150.123 31.0674C150.824 30.395 151.174 29.514 151.174 28.4011C151.174 27.2651 150.847 26.3609 150.193 25.7117ZM146.874 29.7922H146.08V26.9637H146.874C147.996 26.9637 148.557 27.4274 148.557 28.378C148.58 29.3285 147.996 29.7922 146.874 29.7922Z" fill="white"/>
<path d="M133.39 30.4414V27.6824H137.947V30.4414C137.947 31.6006 138.368 32.1802 139.186 32.1802C140.004 32.1802 140.425 31.6006 140.425 30.4414V22.86C140.425 21.7008 140.004 21.098 139.186 21.098C138.368 21.098 137.947 21.6776 137.947 22.86V25.3871H133.39V22.86C133.39 21.7008 132.97 21.098 132.152 21.098C131.334 21.098 130.913 21.6776 130.913 22.86V30.4414C130.913 31.6006 131.334 32.1802 132.152 32.1802C132.993 32.1802 133.39 31.6006 133.39 30.4414Z" fill="white"/>
<path d="M120.631 30.4414V27.6824H125.188V30.4414C125.188 31.6006 125.609 32.1802 126.426 32.1802C127.244 32.1802 127.665 31.6006 127.665 30.4414V22.86C127.665 21.7008 127.244 21.098 126.426 21.098C125.609 21.098 125.188 21.6776 125.188 22.86V25.3871H120.631V22.86C120.631 21.7008 120.21 21.098 119.392 21.098C118.574 21.098 118.154 21.6776 118.154 22.86V30.4414C118.154 31.6006 118.574 32.1802 119.392 32.1802C120.234 32.1802 120.631 31.6006 120.631 30.4414Z" fill="white"/>
<path d="M113.69 21.2603H110.909C110.208 21.2603 109.741 21.3994 109.531 21.6776C109.32 21.9558 109.203 22.3963 109.203 22.9759V30.4878C109.203 31.0674 109.32 31.4847 109.554 31.6934C109.788 31.9252 110.232 32.0411 110.886 32.0411H113.76C114.929 32.0411 115.537 31.6702 115.537 30.9051C115.537 30.14 114.952 29.7458 113.76 29.7458H111.657V27.7288H113.41C114.578 27.7288 115.163 27.3578 115.163 26.5927C115.163 25.8276 114.578 25.4567 113.41 25.4567H111.657V23.5324H113.69C114.859 23.5324 115.466 23.1614 115.466 22.3963C115.466 21.6544 114.882 21.2603 113.69 21.2603Z" fill="white"/>
<path d="M106.119 27.2419C105.838 26.871 105.371 26.5927 104.74 26.3841V26.3377C105.254 26.0827 105.605 25.7581 105.768 25.3408C105.932 24.9466 106.025 24.4598 106.025 23.9265C106.025 23.1151 105.675 22.4659 104.997 21.979C104.296 21.4921 103.408 21.2371 102.286 21.2371H100.253C99.5521 21.2371 99.0847 21.3762 98.8744 21.6544C98.6641 21.9326 98.5472 22.3731 98.5472 22.9528V30.4646C98.5472 31.0442 98.6641 31.4615 98.8978 31.6702C99.1315 31.902 99.5755 32.0179 100.23 32.0179H102.684C103.945 32.0179 104.904 31.7165 105.581 31.1369C106.236 30.5573 106.586 29.769 106.586 28.7721C106.539 28.1461 106.399 27.6129 106.119 27.2419ZM101.001 23.3701H102.076C103.034 23.3701 103.525 23.7178 103.525 24.4134C103.525 24.8075 103.431 25.0857 103.221 25.248C103.011 25.4103 102.637 25.5031 102.076 25.5031H101.001V23.3701ZM103.572 29.6299C103.315 29.8386 102.894 29.9313 102.24 29.9313H101.001V27.4042H102.193C102.847 27.4042 103.315 27.4969 103.548 27.7056C103.782 27.9143 103.922 28.2388 103.922 28.7257C103.922 29.1199 103.805 29.4213 103.572 29.6299Z" fill="white"/>
<path d="M94.481 21.2603H90.1577C88.9893 21.2603 88.3817 21.6544 88.3817 22.4195C88.3817 23.1846 88.9659 23.5556 90.1577 23.5556H91.0691V30.4646C91.0691 31.6238 91.4898 32.2034 92.3077 32.2034C93.1256 32.2034 93.5462 31.6238 93.5462 30.4646V23.5556H94.4576C95.6261 23.5556 96.2337 23.1846 96.2337 22.4195C96.2337 21.6544 95.6495 21.2603 94.481 21.2603Z" fill="white"/>
<path d="M85.7877 29.3517C85.5073 29.3517 85.1801 29.4444 84.8296 29.6067C84.4791 29.7922 84.0351 29.8618 83.5443 29.8618C82.7264 29.8618 82.0954 29.5836 81.6047 29.0271C81.1139 28.4707 80.8802 27.7056 80.8802 26.7087C80.8802 25.6885 81.1139 24.9003 81.6047 24.2975C82.0954 23.7178 82.7264 23.4165 83.4976 23.4165C83.9416 23.4165 84.3622 23.486 84.7128 23.6251C85.0633 23.7642 85.3905 23.8338 85.6475 23.8338C85.928 23.8338 86.1616 23.7178 86.372 23.5092C86.5823 23.3005 86.6758 23.0455 86.6758 22.7673C86.6758 22.5586 86.6057 22.3268 86.4421 22.1413C86.2785 21.9326 86.0682 21.7703 85.7877 21.608C85.5073 21.4458 85.1568 21.3298 84.7829 21.2371C84.3856 21.1444 83.9649 21.098 83.4976 21.098C82.7731 21.098 82.0721 21.2371 81.4411 21.4921C80.8101 21.7472 80.2493 22.1181 79.8053 22.605C79.3379 23.0919 78.964 23.6715 78.7069 24.367C78.4265 25.0626 78.3096 25.8276 78.3096 26.6623C78.3096 27.5201 78.4265 28.2852 78.6835 28.9576C78.9406 29.6299 79.2911 30.2095 79.7585 30.6964C80.2259 31.1601 80.7634 31.5311 81.3943 31.7861C82.0253 32.0411 82.7264 32.1802 83.4976 32.1802C84.5024 32.1802 85.3204 31.9948 85.9279 31.647C86.5355 31.2992 86.8393 30.8819 86.8393 30.4182C86.8393 30.14 86.7459 29.885 86.5355 29.6763C86.2551 29.4676 86.0214 29.3517 85.7877 29.3517Z" fill="white"/>
<path d="M71.7897 21.2603H69.5696C68.8686 21.2603 68.4012 21.3994 68.1908 21.6776C67.9805 21.9558 67.8637 22.3963 67.8637 22.9759V30.4414C67.8637 31.6006 68.2843 32.1802 69.1022 32.1802C69.9202 32.1802 70.3408 31.6006 70.3408 30.4414V28.5866H72.0234C73.2152 28.5866 74.1499 28.262 74.8277 27.6129C75.482 26.9637 75.8092 26.0595 75.8092 24.9466C75.8092 23.8338 75.4586 22.9296 74.7576 22.2804C74.0331 21.608 73.0516 21.2603 71.7897 21.2603ZM71.3924 26.3609H70.3174V23.5324H71.3924C72.5375 23.5324 73.0984 23.9961 73.0984 24.9466C73.0984 25.874 72.5375 26.3609 71.3924 26.3609Z" fill="white"/>
<path d="M65.1295 30.3023L62.3953 22.5354C62.0448 21.6081 61.4372 21.1212 60.5492 21.1212C59.6845 21.1212 59.0536 21.6544 58.6563 22.6977L55.8286 30.3023C55.7585 30.5109 55.7118 30.766 55.7118 31.021C55.7118 31.3688 55.8286 31.647 56.0389 31.8556C56.2493 32.0643 56.5531 32.1802 56.8802 32.1802C57.4411 32.1802 57.8384 31.8325 58.0721 31.1137L58.5161 29.769H62.372L62.7692 31.021C63.0263 31.8093 63.4469 32.1802 64.0779 32.1802C64.4284 32.1802 64.7089 32.0875 64.9426 31.8788C65.1762 31.6702 65.2931 31.4151 65.2931 31.0674C65.2931 30.9514 65.2697 30.8355 65.2463 30.7196C65.2463 30.6037 65.1996 30.4646 65.1295 30.3023ZM59.2639 27.5897L60.5024 23.7874H60.5492L61.741 27.5897H59.2639Z" fill="white"/>
<path d="M52.4167 30.0009H52.0428L49.4021 22.4891C49.2386 22.0486 49.0049 21.7008 48.7011 21.4689C48.3973 21.2371 48.0234 21.1212 47.6261 21.1212C46.7848 21.1212 46.1772 21.6312 45.7799 22.6514L43.0458 29.9777H42.742C42.3914 29.9777 42.1577 30.0704 41.9942 30.2327C41.8306 30.395 41.7605 30.6732 41.7605 31.0442C41.7605 31.3456 41.8306 31.6006 41.9942 31.7629C42.1577 31.9484 42.3914 32.0411 42.742 32.0411H52.3934C52.7439 32.0411 53.001 31.9484 53.1879 31.7629C53.3749 31.5774 53.4684 31.3456 53.4684 31.0442C53.4684 30.7196 53.3749 30.4646 53.1879 30.2791C53.0243 30.0936 52.7439 30.0009 52.4167 30.0009ZM45.4995 30.0009L47.5326 23.7178H47.5794L49.5424 30.0009H45.4995Z" fill="white"/>
<path d="M39.2366 21.1212C38.9094 21.1212 38.6758 21.2139 38.5122 21.3762C38.3486 21.5617 38.185 21.8399 38.0214 22.2572L36.0818 27.4042H36.0351L33.9085 22.1645C33.7449 21.7935 33.5813 21.5153 33.4411 21.353C33.3009 21.1907 33.0672 21.098 32.7868 21.098C32.4362 21.098 32.1558 21.2139 31.9221 21.4458C31.7118 21.6776 31.5949 21.979 31.5949 22.3268C31.5949 22.5818 31.6417 22.7905 31.7352 23.0223L34.7965 30.5573L34.0954 32.2962C34.0019 32.528 33.9552 32.7598 33.9552 33.0149C33.9552 33.3626 34.0487 33.6409 34.2356 33.8727C34.4226 34.0814 34.703 34.1973 35.0536 34.1973C35.3106 34.1973 35.5209 34.1509 35.7079 34.035C35.8948 33.9423 36.1052 33.6409 36.2687 33.1772L40.2181 23.0919C40.2882 22.9528 40.3116 22.7905 40.3583 22.6514C40.3817 22.5123 40.4051 22.3731 40.4051 22.2572C40.4051 21.9095 40.3116 21.6312 40.1246 21.4226C39.8909 21.2139 39.6105 21.1212 39.2366 21.1212Z" fill="white"/>
<path d="M29.0944 29.3517C28.814 29.3517 28.4869 29.4444 28.1363 29.6067C27.7858 29.7922 27.3418 29.8618 26.851 29.8618C26.0331 29.8618 25.4021 29.5836 24.9114 29.0271C24.4206 28.4707 24.187 27.7056 24.187 26.7087C24.187 25.6885 24.4206 24.9003 24.9114 24.2975C25.4021 23.7178 26.0331 23.4165 26.8043 23.4165C27.2483 23.4165 27.6689 23.486 28.0195 23.6251C28.37 23.7642 28.6972 23.8338 28.9542 23.8338C29.2347 23.8338 29.4684 23.7178 29.6787 23.5092C29.889 23.3005 29.9825 23.0455 29.9825 22.7673C29.9825 22.5586 29.9124 22.3268 29.7488 22.1413C29.5852 21.9326 29.3749 21.7703 29.0944 21.608C28.814 21.4458 28.4635 21.3298 28.0896 21.2371C27.6923 21.1444 27.2717 21.098 26.8043 21.098C26.0798 21.098 25.3788 21.2371 24.7478 21.4921C24.1168 21.7472 23.556 22.1181 23.112 22.605C22.6446 23.0919 22.2707 23.6715 22.0136 24.367C21.7332 25.0626 21.6164 25.8276 21.6164 26.6623C21.6164 27.5201 21.7332 28.2852 21.9903 28.9576C22.2473 29.6299 22.5979 30.2095 23.0652 30.6964C23.5326 31.1601 24.0701 31.5311 24.7011 31.7861C25.332 32.0411 26.0331 32.1802 26.8043 32.1802C27.8092 32.1802 28.6271 31.9948 29.2347 31.647C29.8423 31.2992 30.1461 30.8819 30.1461 30.4182C30.1461 30.14 30.0526 29.885 29.8423 29.6763C29.5618 29.4676 29.3281 29.3517 29.0944 29.3517Z" fill="white"/>
<path d="M17.4099 22.6282C16.9426 22.1413 16.4051 21.7703 15.7741 21.5153C15.1431 21.2603 14.4421 21.1212 13.6475 21.1212C12.8763 21.1212 12.1753 21.2603 11.5209 21.5153C10.89 21.7703 10.3291 22.1413 9.8851 22.6282C9.41772 23.115 9.06719 23.6947 8.81013 24.3902C8.55307 25.0626 8.43622 25.8277 8.43622 26.6623C8.43622 27.4969 8.55307 28.262 8.81013 28.9344C9.06719 29.6067 9.41772 30.1864 9.86173 30.6732C10.3057 31.1601 10.8666 31.5311 11.4976 31.7861C12.1285 32.0411 12.853 32.1802 13.6241 32.1802C14.4187 32.1802 15.1198 32.0411 15.7741 31.7861C16.4284 31.5311 16.9659 31.1601 17.4099 30.6732C17.8539 30.1864 18.2045 29.6067 18.4615 28.9344C18.6952 28.262 18.8354 27.4969 18.8354 26.6623C18.8354 25.8277 18.7186 25.0626 18.4615 24.3902C18.2278 23.7178 17.8539 23.115 17.4099 22.6282ZM15.5638 29.0271C15.073 29.6067 14.4654 29.885 13.6943 29.885C12.9231 29.885 12.3155 29.6067 11.8247 29.0271C11.3574 28.4475 11.1003 27.6592 11.1003 26.6623C11.1003 25.619 11.334 24.8075 11.8247 24.2279C12.2921 23.6483 12.9231 23.3469 13.6943 23.3469C14.4654 23.3469 15.0964 23.6483 15.5638 24.2279C16.0312 24.8075 16.2882 25.619 16.2882 26.6623C16.2882 27.6592 16.0545 28.4475 15.5638 29.0271Z" fill="white"/>
<path d="M5.16456 21.2603H2.38364C1.68257 21.2603 1.21519 21.3994 1.00487 21.6776C0.794547 21.9558 0.677702 22.3963 0.677702 22.9759V30.4414C0.677702 31.6006 1.09834 32.1802 1.91626 32.1802C2.73418 32.1802 3.15482 31.6006 3.15482 30.4414V23.5324H5.18793C6.35638 23.5324 6.96397 23.1614 6.96397 22.3963C6.9406 21.6544 6.35638 21.2603 5.16456 21.2603Z" fill="white"/>
<path d="M120.257 3.03718C120.07 2.73578 119.79 2.59668 119.369 2.59668C119.089 2.59668 118.832 2.66623 118.645 2.80534C118.434 2.94444 118.247 3.15311 118.037 3.40814L113.363 9.52887V4.40507C113.363 3.22266 112.943 2.61986 112.101 2.61986C111.26 2.61986 110.839 3.22266 110.839 4.40507V12.4038C110.839 12.9138 110.933 13.2848 111.096 13.5398C111.26 13.7717 111.564 13.9108 111.961 13.9108C112.241 13.9108 112.499 13.8412 112.732 13.7253C112.966 13.6094 113.2 13.3775 113.433 13.0761L118.014 7.09449V12.1487C118.014 13.3311 118.434 13.9108 119.276 13.9108C120.117 13.9108 120.537 13.3311 120.537 12.1487V4.31234C120.537 3.75591 120.444 3.33858 120.257 3.03718Z" fill="white"/>
<path d="M113.831 2.08661C114.298 2.45757 114.929 2.64304 115.677 2.64304C116.448 2.64304 117.056 2.45757 117.523 2.1098C117.99 1.73885 118.224 1.34471 118.224 0.85783C118.224 0.6028 118.154 0.394138 118.014 0.231846C117.873 0.0695538 117.663 0 117.406 0C117.149 0 116.985 0.0463692 116.892 0.162292C116.798 0.278215 116.705 0.370954 116.635 0.510061C116.565 0.625984 116.448 0.741907 116.331 0.85783C116.191 0.973753 115.981 1.02012 115.677 1.02012C115.373 1.02012 115.139 0.973753 115.022 0.85783C114.882 0.741907 114.789 0.649169 114.695 0.510061C114.625 0.394138 114.532 0.278215 114.438 0.162292C114.345 0.0463692 114.181 0 113.924 0C113.667 0 113.48 0.0695538 113.34 0.231846C113.2 0.394138 113.129 0.6028 113.129 0.85783C113.129 1.29834 113.363 1.71566 113.831 2.08661Z" fill="white"/>
<path d="M106.095 2.59668C105.254 2.59668 104.833 3.19948 104.833 4.38189V12.1024C104.833 13.2848 105.254 13.8644 106.095 13.8644C106.937 13.8644 107.381 13.2848 107.381 12.1024V4.40507C107.357 3.19948 106.937 2.59668 106.095 2.59668Z" fill="white"/>
<path d="M99.5755 6.28303H98.2434V4.40507C98.2434 3.22266 97.8228 2.61986 96.9815 2.61986C96.1402 2.61986 95.7196 3.22266 95.7196 4.40507V11.9864C95.7196 12.5892 95.8364 13.0297 96.0467 13.3311C96.2804 13.6094 96.7478 13.7485 97.4489 13.7485H99.3418C100.604 13.7485 101.585 13.4007 102.31 12.7283C103.034 12.056 103.385 11.1518 103.385 10.0157C103.385 8.85652 103.057 7.95232 102.38 7.27997C101.749 6.60761 100.814 6.28303 99.5755 6.28303ZM99.0613 11.4532H98.2434V8.55512H99.0613C100.206 8.55512 100.791 9.042 100.791 10.0157C100.767 10.9663 100.206 11.4532 99.0613 11.4532Z" fill="white"/>
<path d="M91.2327 2.59668C90.3914 2.59668 89.9708 3.19948 89.9708 4.38189V6.97857H85.3204V4.40507C85.3204 3.22266 84.8997 2.61986 84.0584 2.61986C83.2171 2.61986 82.7965 3.22266 82.7965 4.40507V12.1255C82.7965 13.308 83.2171 13.8876 84.0584 13.8876C84.8997 13.8876 85.3204 13.308 85.3204 12.1255V9.29703H89.9708V12.1024C89.9708 13.2848 90.3914 13.8644 91.2327 13.8644C92.074 13.8644 92.4946 13.2848 92.4946 12.1024V4.40507C92.4946 3.19948 92.074 2.59668 91.2327 2.59668Z" fill="white"/>
<path d="M76.2532 2.75897H73.9864C73.2853 2.75897 72.7945 2.89808 72.5842 3.17629C72.3505 3.45451 72.2571 3.89501 72.2571 4.49781V12.1024C72.2571 13.2848 72.6777 13.8644 73.519 13.8644C74.3603 13.8644 74.7809 13.2848 74.7809 12.1024V10.2244H76.4869C77.702 10.2244 78.6602 9.89983 79.3379 9.22747C80.0156 8.55512 80.3428 7.65092 80.3428 6.49169C80.3428 5.35564 79.9922 4.45144 79.2678 3.75591C78.52 3.08355 77.5385 2.75897 76.2532 2.75897ZM75.8325 7.95232H74.7342V5.05424H75.8325C77.001 5.05424 77.5852 5.54112 77.5852 6.49169C77.5852 7.46544 77.001 7.95232 75.8325 7.95232Z" fill="white"/>
<path d="M67.5833 2.75897H65.6203C64.2649 2.75897 63.2132 3.08355 62.4888 3.70954C61.7644 4.33552 61.3905 5.17017 61.3905 6.19029C61.3905 6.97857 61.6242 7.65092 62.0915 8.16098C62.5589 8.69423 63.2132 9.01881 64.0312 9.15792L62.0448 11.3605C61.554 11.9169 61.297 12.3806 61.297 12.7979C61.297 13.1225 61.4138 13.3775 61.6475 13.5862C61.8812 13.7948 62.1616 13.8876 62.5122 13.8876C62.7692 13.8876 62.9796 13.818 63.1899 13.7021C63.4002 13.563 63.6105 13.3775 63.8442 13.0993L66.7887 9.38977V12.1024C66.7887 13.2848 67.2094 13.8644 68.074 13.8644C68.9153 13.8644 69.3359 13.2848 69.3359 12.1024V4.49781C69.3359 3.89501 69.2191 3.45451 68.9854 3.17629C68.7283 2.89808 68.2843 2.75897 67.5833 2.75897ZM66.7887 7.74366H65.6203C65.1061 7.74366 64.7089 7.62774 64.4284 7.3727C64.148 7.14086 64.0078 6.79309 64.0078 6.35258C64.0078 5.93526 64.148 5.63386 64.4284 5.40201C64.7089 5.17017 65.0828 5.05424 65.5969 5.05424H66.7887V7.74366Z" fill="white"/>
<path d="M58.7965 11.9633L55.9922 4.03412C55.6417 3.08355 55.0107 2.59668 54.1227 2.59668C53.2347 2.59668 52.5803 3.12992 52.1831 4.2196L49.2853 11.9864C49.2152 12.2183 49.1685 12.4501 49.1685 12.7052C49.1685 13.0529 49.2853 13.3311 49.4956 13.5398C49.7293 13.7485 50.0097 13.8644 50.3603 13.8644C50.9445 13.8644 51.3418 13.4934 51.5755 12.7747L54.0058 5.30927H54.0526L56.3661 12.682C56.6232 13.4703 57.0672 13.8644 57.6982 13.8644C58.0487 13.8644 58.3525 13.7717 58.5862 13.563C58.8199 13.3543 58.9601 13.0761 58.9601 12.7283C58.9601 12.6124 58.9367 12.4965 58.9133 12.3806C58.9133 12.2647 58.8666 12.1255 58.7965 11.9633Z" fill="white"/>
<path d="M46.1538 4.15004C45.6865 3.66317 45.1256 3.26903 44.4713 3.014C43.8169 2.73578 43.0925 2.61986 42.3213 2.61986C41.5268 2.61986 40.8257 2.75897 40.1714 3.014C39.517 3.29221 38.9562 3.66317 38.4888 4.15004C38.0214 4.63692 37.6475 5.23972 37.3905 5.93526C37.1334 6.6308 37.0166 7.39589 37.0166 8.25372C37.0166 9.11155 37.1568 9.87664 37.3905 10.5722C37.6475 11.2677 37.9981 11.8473 38.4654 12.3342C38.9328 12.8211 39.4937 13.192 40.1246 13.4703C40.779 13.7485 41.5034 13.8644 42.298 13.8644C43.0925 13.8644 43.8169 13.7253 44.4713 13.4703C45.1256 13.192 45.6865 12.8211 46.1538 12.3342C46.6212 11.8473 46.9718 11.2445 47.2288 10.5722C47.4859 9.87664 47.6027 9.11155 47.6027 8.25372C47.6027 7.39589 47.4859 6.6308 47.2288 5.93526C46.9951 5.23972 46.6212 4.63692 46.1538 4.15004ZM44.2843 10.6649C43.7936 11.2445 43.1626 11.5459 42.3914 11.5459C41.6203 11.5459 40.9893 11.2445 40.4985 10.6649C40.0078 10.0853 39.7741 9.27384 39.7741 8.25372C39.7741 7.21041 40.0078 6.37577 40.4985 5.77297C40.9893 5.17017 41.6203 4.86877 42.3914 4.86877C43.186 4.86877 43.8169 5.17017 44.3077 5.77297C44.7984 6.37577 45.0321 7.21041 45.0321 8.25372C45.0321 9.27384 44.7751 10.0853 44.2843 10.6649Z" fill="white"/>
<path d="M32.4362 2.75897H26.2201C25.075 2.75897 24.4908 3.33858 24.4908 4.521V12.1024C24.4908 13.2848 24.9114 13.8644 25.7527 13.8644C26.594 13.8644 27.0146 13.2848 27.0146 12.1024V4.9615H31.665V12.1024C31.665 13.2848 32.0857 13.8644 32.927 13.8644C33.7683 13.8644 34.1889 13.2848 34.1889 12.1024V4.521C34.1422 3.33858 33.5813 2.75897 32.4362 2.75897Z" fill="white"/>
<path d="M21.0088 11.9633L18.2045 4.03412C17.8539 3.08355 17.223 2.59668 16.335 2.59668C15.4469 2.59668 14.7926 3.12992 14.3953 4.2196L11.5209 11.9864C11.4508 12.2183 11.4041 12.4501 11.4041 12.7052C11.4041 13.0529 11.5209 13.3311 11.7313 13.5398C11.9649 13.7485 12.2454 13.8644 12.5959 13.8644C13.1801 13.8644 13.5774 13.4934 13.8111 12.7747L14.2551 11.4068H18.1811L18.6018 12.682C18.8588 13.4703 19.3028 13.8644 19.9338 13.8644C20.2843 13.8644 20.5881 13.7717 20.8218 13.563C21.0555 13.3543 21.1957 13.0761 21.1957 12.7283C21.1957 12.6124 21.1723 12.4965 21.149 12.3806C21.1256 12.2647 21.0789 12.1255 21.0088 11.9633ZM15.0029 9.20429L16.2648 5.33246H16.3116L17.5268 9.20429H15.0029Z" fill="white"/>
<path d="M7.03408 7.92913V7.88277C7.50146 7.6741 7.852 7.41907 8.13242 7.0713C8.41285 6.74672 8.5297 6.25984 8.5297 5.63386C8.5297 4.66011 8.20253 3.89501 7.5482 3.38495C6.89387 2.87489 5.91237 2.59668 4.6037 2.59668C4.13632 2.59668 3.69231 2.64304 3.27167 2.7126C2.85102 2.78215 2.47712 2.89808 2.17332 3.03718C1.84615 3.17629 1.61246 3.33858 1.42551 3.54724C1.21519 3.73272 1.12171 3.94138 1.12171 4.17323C1.12171 4.56737 1.21519 4.8224 1.40214 4.93832C1.58909 5.05424 1.84615 5.1238 2.17332 5.1238C2.38364 5.1238 2.57059 5.10061 2.75755 5.05424C2.92113 5.00787 3.10808 4.96151 3.27167 4.91514C3.45862 4.86877 3.6222 4.79921 3.83252 4.77603C4.01947 4.72966 4.25316 4.70647 4.51022 4.70647C5.51509 4.70647 6.02921 5.10061 6.02921 5.88889C6.02921 6.25984 5.889 6.51487 5.60857 6.67717C5.32814 6.83946 5.00097 6.9322 4.6037 6.9322H3.926C3.45862 6.9322 3.06134 7.02493 2.78092 7.21041C2.47712 7.39589 2.3369 7.65092 2.3369 7.9755C2.3369 8.32327 2.47712 8.5783 2.78092 8.76378C3.08471 8.94926 3.45862 9.01881 3.926 9.01881H4.62707C5.11782 9.01881 5.51509 9.15792 5.79552 9.41295C6.07595 9.69116 6.21616 9.99256 6.21616 10.3635C6.21616 10.7577 6.07595 11.0822 5.79552 11.3141C5.51509 11.5459 5.09445 11.6619 4.53359 11.6619C4.06621 11.6619 3.71568 11.6387 3.48199 11.5691C3.2483 11.4996 3.06134 11.4532 2.89776 11.3836C2.73418 11.3141 2.59396 11.2445 2.45375 11.1982C2.31353 11.1286 2.07984 11.1054 1.79942 11.1054C1.49562 11.1054 1.23856 11.175 1.05161 11.3373C0.841285 11.4764 0.747809 11.7314 0.747809 12.056C0.747809 12.3806 0.841285 12.6588 1.02824 12.8906C1.21519 13.1225 1.49562 13.308 1.82278 13.4703C2.14995 13.6094 2.54723 13.7253 3.01461 13.7948C3.48199 13.8644 3.97274 13.9108 4.48686 13.9108C5.30477 13.9108 6.00584 13.818 6.5667 13.6557C7.12756 13.4934 7.57157 13.2384 7.9221 12.937C8.27264 12.6356 8.50633 12.2647 8.64654 11.8473C8.78676 11.43 8.85686 10.9663 8.85686 10.4794C8.85686 9.99256 8.71665 9.50569 8.43622 9.01881C8.10906 8.50875 7.64167 8.16098 7.03408 7.92913Z" fill="white"/>
<path d="M112.055 42.3351H112.989V49.2673C112.989 50.4265 113.41 51.0061 114.228 51.0061C115.046 51.0061 115.466 50.4265 115.466 49.2673V42.3351H116.378C117.57 42.3351 118.154 41.9641 118.154 41.199C118.154 40.434 117.57 40.0398 116.378 40.0398H112.055C110.863 40.0398 110.278 40.434 110.278 41.199C110.278 41.9641 110.863 42.3351 112.055 42.3351Z" fill="white"/>
<path d="M105.745 40.0398H102.964C102.263 40.0398 101.796 40.1789 101.585 40.4571C101.375 40.7353 101.258 41.1759 101.258 41.7555V49.2905C101.258 49.8701 101.375 50.2874 101.609 50.5193C101.842 50.7511 102.286 50.867 102.941 50.867H105.838C107.03 50.867 107.614 50.4961 107.614 49.731C107.614 48.9659 107.03 48.5717 105.838 48.5717H103.735V46.5315H105.488C106.656 46.5315 107.241 46.1605 107.241 45.3955C107.241 44.6304 106.656 44.2594 105.488 44.2594H103.712V42.3119H105.745C106.937 42.3119 107.521 41.9409 107.521 41.1759C107.521 40.4339 106.937 40.0398 105.745 40.0398Z" fill="white"/>
<path d="M92.8218 42.3351H93.7566V49.2673C93.7566 50.4265 94.1772 51.0061 94.9951 51.0061C95.813 51.0061 96.2337 50.4265 96.2337 49.2673V42.3351H97.1451C98.3369 42.3351 98.9211 41.9641 98.9211 41.199C98.9211 40.434 98.3369 40.0398 97.1451 40.0398H92.8218C91.63 40.0398 91.0458 40.434 91.0458 41.199C91.0458 41.9641 91.63 42.3351 92.8218 42.3351Z" fill="white"/>
<path d="M85.8812 44.2826V49.2673C85.8812 50.4265 86.3018 51.0061 87.1198 51.0061C87.9377 51.0061 88.3583 50.4265 88.3583 49.2673V41.57C88.3583 41.0368 88.2649 40.6194 88.1013 40.3412C87.9143 40.063 87.6339 39.9007 87.2132 39.9007C86.9328 39.9007 86.6991 39.9703 86.4888 40.1094C86.3018 40.2485 86.0915 40.4571 85.9046 40.7122L81.3009 46.7402V41.6627C81.3009 40.4803 80.8802 39.9007 80.0623 39.9007C79.2444 39.9007 78.8238 40.4803 78.8238 41.6627V49.5455C78.8238 50.0556 78.9172 50.4265 79.0808 50.6584C79.2444 50.8902 79.5482 51.0061 79.9221 51.0061C80.2025 51.0061 80.4362 50.9366 80.6699 50.8207C80.9036 50.7047 81.1373 50.4961 81.371 50.1715L85.8812 44.2826Z" fill="white"/>
<path d="M72.7712 51.0061C73.776 51.0061 74.594 50.8207 75.2016 50.4729C75.8092 50.1019 76.113 49.7078 76.113 49.2441C76.113 48.9659 76.0195 48.7109 75.8092 48.5022C75.5988 48.2935 75.3652 48.1776 75.1315 48.1776C74.851 48.1776 74.5239 48.2703 74.1733 48.4326C73.8228 48.6181 73.3788 48.6877 72.888 48.6877C72.0701 48.6877 71.4158 48.4095 70.925 47.853C70.4343 47.2966 70.1772 46.5083 70.1772 45.5346C70.1772 44.5144 70.4109 43.7262 70.9017 43.1234C71.3924 42.5206 72.0234 42.2424 72.7946 42.2424C73.2386 42.2424 73.6592 42.3119 74.0097 42.451C74.3603 42.5901 74.6874 42.6597 74.9445 42.6597C75.2249 42.6597 75.4586 42.5437 75.6689 42.3351C75.8793 42.1264 75.9727 41.8714 75.9727 41.5932C75.9727 41.3845 75.9026 41.1527 75.739 40.9672C75.5755 40.7585 75.3651 40.5962 75.0847 40.4339C74.8043 40.2717 74.4538 40.1557 74.0798 40.063C73.6826 39.9703 73.2619 39.9239 72.7946 39.9239C72.0467 39.9239 71.369 40.063 70.7381 40.318C70.1071 40.5731 69.5463 40.944 69.0789 41.4309C68.6115 41.9178 68.2376 42.4974 67.9805 43.1929C67.7001 43.8885 67.5833 44.6535 67.5833 45.4882C67.5833 46.346 67.7001 47.1111 67.9572 47.8067C68.2142 48.5022 68.5648 49.0818 69.0321 49.5455C69.4995 50.0324 70.037 50.3801 70.6913 50.6352C71.3223 50.867 72.0234 51.0061 72.7712 51.0061Z" fill="white"/>
<path d="M64.0545 41.0367C63.3534 40.3644 62.372 40.0398 61.11 40.0398H58.8666C58.1655 40.0398 57.6981 40.1789 57.4878 40.4571C57.2775 40.7353 57.1607 41.1759 57.1607 41.7555V49.2441C57.1607 50.4033 57.5813 50.9829 58.3992 50.9829C59.2171 50.9829 59.6378 50.4033 59.6378 49.2441V47.3661H61.3204C62.5355 47.3661 63.4703 47.0416 64.1246 46.3924C64.779 45.7432 65.1295 44.839 65.1295 43.703C65.1295 42.6133 64.7556 41.7091 64.0545 41.0367ZM60.7128 45.1636H59.6378V42.3351H60.7128C61.8578 42.3351 62.4187 42.7988 62.4187 43.7494C62.4187 44.6767 61.8578 45.1636 60.7128 45.1636Z" fill="white"/>
<path d="M52.37 48.5717H50.2668V46.5315H52.0195C53.1879 46.5315 53.7722 46.1605 53.7722 45.3955C53.7722 44.6304 53.1879 44.2594 52.0195 44.2594H50.2668V42.3119H52.2999C53.4917 42.3119 54.076 41.9409 54.076 41.1759C54.076 40.4108 53.4917 40.0166 52.2999 40.0166H49.519C48.8179 40.0166 48.3505 40.1557 48.1402 40.434C47.9299 40.7122 47.813 41.1527 47.813 41.7323V49.2673C47.813 49.8469 47.9299 50.2642 48.1636 50.4961C48.3973 50.7279 48.8413 50.8438 49.4956 50.8438H52.3934C53.5852 50.8438 54.1694 50.4729 54.1694 49.7078C54.1461 48.9659 53.5618 48.5717 52.37 48.5717Z" fill="white"/>
<path d="M43.0224 45.1636V45.1172C43.5365 44.8622 43.8871 44.5376 44.0506 44.1203C44.2142 43.7262 44.3077 43.2393 44.3077 42.706C44.3077 41.8946 43.9572 41.2454 43.2561 40.7354C42.555 40.2485 41.6436 39.9934 40.5219 39.9934H38.5122C37.8111 39.9934 37.3437 40.1325 37.1334 40.4108C36.9231 40.689 36.8062 41.1295 36.8062 41.7091V49.2441C36.8062 49.8237 36.9231 50.241 37.1568 50.4729C37.3905 50.7047 37.8345 50.8207 38.4888 50.8207H40.9426C42.2045 50.8207 43.186 50.5193 43.8403 49.9396C44.4946 49.3368 44.8452 48.5486 44.8452 47.5748C44.8452 46.9025 44.705 46.3924 44.4245 45.9983C44.1207 45.6737 43.6534 45.3723 43.0224 45.1636ZM39.26 42.1496H40.335C41.3165 42.1496 41.7838 42.4974 41.7838 43.1929C41.7838 43.5871 41.6904 43.8653 41.48 44.0276C41.2697 44.1899 40.8958 44.2826 40.335 44.2826H39.26V42.1496ZM41.8306 48.4326C41.5735 48.6413 41.1529 48.734 40.4985 48.734H39.26V46.1837H40.4518C41.1061 46.1837 41.5735 46.2765 41.8072 46.4851C42.0643 46.6938 42.1811 47.0416 42.1811 47.5284C42.2045 47.9226 42.0876 48.224 41.8306 48.4326Z" fill="white"/>
<path d="M32.5764 39.9007C32.296 39.9007 32.0623 39.9703 31.852 40.1094C31.665 40.2485 31.4547 40.4571 31.2678 40.7122L26.6641 46.7402V41.6627C26.6641 40.4803 26.2434 39.9007 25.4255 39.9007C24.6076 39.9007 24.187 40.4803 24.187 41.6627V49.5455C24.187 50.0556 24.2804 50.4265 24.444 50.6584C24.6076 50.8902 24.888 51.0061 25.2853 51.0061C25.5657 51.0061 25.7994 50.9366 26.0331 50.8207C26.2668 50.7047 26.5005 50.4961 26.7342 50.1715L31.2444 44.2826V49.2673C31.2444 50.4265 31.665 51.0061 32.483 51.0061C33.3009 51.0061 33.7215 50.4265 33.7215 49.2673V41.57C33.7215 41.0368 33.628 40.6194 33.4645 40.3412C33.2775 40.0398 32.9971 39.9007 32.5764 39.9007Z" fill="white"/>
<path d="M19.7235 39.9007C18.9056 39.9007 18.4849 40.4803 18.4849 41.6627V44.213H13.9046V41.6627C13.9046 40.4803 13.4839 39.9007 12.666 39.9007C11.8481 39.9007 11.4275 40.4803 11.4275 41.6627V49.2673C11.4275 50.4265 11.8481 51.0061 12.666 51.0061C13.4839 51.0061 13.9046 50.4265 13.9046 49.2673V46.5083H18.4849V49.2673C18.4849 50.4265 18.9056 51.0061 19.7235 51.0061C20.5414 51.0061 20.962 50.4265 20.962 49.2673V41.6627C20.962 40.4803 20.5414 39.9007 19.7235 39.9007Z" fill="white"/>
<path d="M7.73515 39.9007C7.40798 39.9007 7.17429 39.9934 6.98734 40.1557C6.82376 40.3412 6.66018 40.6194 6.49659 41.0367L4.53359 46.2069H4.48686L2.3369 40.944C2.17332 40.5731 2.00974 40.2948 1.84615 40.1325C1.68257 39.9703 1.47225 39.8775 1.19182 39.8775C0.841285 39.8775 0.537488 39.9934 0.327167 40.2253C0.116845 40.4571 0 40.7585 0 41.1063C0 41.3613 0.0467382 41.5932 0.140214 41.8018L3.22493 49.36L2.52386 51.0989C2.43038 51.3307 2.38364 51.5626 2.38364 51.8176C2.38364 52.1654 2.47712 52.4668 2.66407 52.6754C2.85102 52.8841 3.13145 53 3.50536 53C3.76241 53 3.97274 52.9536 4.15969 52.8377C4.34664 52.745 4.55696 52.4436 4.72055 51.9799L8.69328 41.8482C8.76339 41.7091 8.78676 41.5468 8.8335 41.4077C8.85687 41.2686 8.88023 41.1295 8.88023 41.0136C8.88023 40.6658 8.78676 40.3876 8.59981 40.1789C8.41285 39.9934 8.13242 39.9007 7.73515 39.9007Z" fill="white"/>
</svg>
